<svg xmlns="http://www.w3.org/2000/svg" viewBox="0 0 388 363" width="388" height="363">
  <path d="M 263 57 L 258 57 L 257 58 L 254 59 L 252 61 L 249 62 L 247 64 L 244 65 L 242 67 L 239 68 L 237 70 L 236 70 L 235 71 L 233 71 L 232 70 L 231 70 L 230 69 L 228 69 L 225 67 L 222 67 L 221 66 L 219 66 L 218 65 L 212 65 L 211 64 L 193 64 L 192 65 L 187 65 L 186 66 L 182 66 L 181 65 L 180 65 L 176 61 L 175 61 L 170 56 L 169 56 L 165 52 L 164 52 L 162 50 L 159 50 L 158 51 L 157 51 L 155 53 L 155 59 L 154 60 L 154 69 L 153 70 L 153 78 L 151 80 L 149 80 L 148 81 L 145 81 L 144 82 L 140 82 L 139 83 L 137 83 L 136 84 L 134 84 L 133 85 L 131 85 L 130 86 L 128 86 L 127 87 L 125 87 L 124 88 L 122 88 L 121 89 L 120 89 L 119 90 L 117 90 L 116 91 L 115 91 L 114 92 L 113 92 L 112 93 L 111 93 L 110 94 L 109 94 L 108 95 L 105 96 L 103 98 L 102 98 L 101 99 L 98 100 L 95 103 L 94 103 L 92 105 L 91 105 L 88 108 L 87 108 L 72 123 L 72 124 L 69 127 L 69 128 L 67 130 L 66 133 L 64 135 L 64 136 L 63 137 L 63 139 L 61 142 L 61 144 L 60 145 L 60 147 L 59 148 L 59 151 L 58 152 L 58 158 L 57 159 L 57 167 L 58 168 L 58 173 L 59 174 L 59 177 L 60 178 L 60 180 L 61 181 L 61 183 L 62 184 L 62 185 L 63 186 L 63 187 L 64 188 L 64 189 L 65 190 L 66 193 L 69 196 L 69 197 L 73 201 L 73 202 L 79 208 L 80 208 L 84 212 L 85 212 L 85 199 L 84 198 L 84 197 L 83 197 L 81 195 L 81 194 L 77 190 L 77 189 L 75 187 L 74 184 L 72 182 L 72 181 L 71 180 L 71 178 L 70 177 L 70 175 L 69 174 L 69 170 L 68 169 L 68 156 L 69 155 L 69 152 L 70 151 L 70 148 L 71 147 L 71 145 L 72 144 L 72 143 L 73 142 L 74 139 L 76 137 L 77 134 L 80 131 L 80 130 L 94 116 L 95 116 L 98 113 L 99 113 L 101 111 L 102 111 L 107 107 L 108 107 L 109 106 L 112 105 L 114 103 L 116 103 L 117 102 L 118 102 L 119 101 L 120 101 L 125 98 L 127 98 L 128 97 L 130 97 L 131 96 L 133 96 L 134 95 L 136 95 L 137 94 L 139 94 L 140 93 L 143 93 L 144 92 L 147 92 L 148 91 L 150 91 L 151 92 L 151 103 L 150 104 L 150 109 L 151 110 L 151 111 L 154 113 L 157 113 L 158 112 L 159 112 L 159 111 L 160 110 L 160 108 L 161 107 L 161 97 L 162 96 L 162 86 L 163 85 L 163 76 L 164 75 L 164 68 L 165 67 L 166 67 L 168 69 L 169 69 L 174 74 L 175 74 L 178 77 L 179 77 L 180 78 L 182 78 L 183 77 L 185 77 L 186 76 L 189 76 L 190 75 L 195 75 L 196 74 L 208 74 L 209 75 L 214 75 L 215 76 L 218 76 L 219 77 L 221 77 L 222 78 L 224 78 L 225 79 L 226 79 L 231 82 L 233 82 L 234 83 L 235 83 L 236 82 L 237 82 L 238 81 L 239 81 L 240 80 L 243 79 L 245 77 L 246 77 L 248 75 L 249 75 L 252 73 L 253 74 L 253 76 L 252 77 L 252 83 L 251 84 L 251 88 L 250 89 L 250 94 L 249 95 L 249 100 L 248 101 L 248 107 L 247 108 L 247 114 L 246 115 L 246 120 L 245 121 L 245 126 L 243 129 L 241 129 L 239 127 L 238 127 L 237 126 L 236 126 L 235 125 L 234 125 L 229 122 L 227 122 L 226 121 L 224 121 L 223 120 L 221 120 L 220 119 L 218 119 L 217 118 L 214 118 L 213 117 L 210 117 L 209 116 L 203 116 L 202 115 L 192 115 L 191 114 L 178 114 L 177 115 L 169 115 L 168 116 L 164 116 L 163 117 L 159 117 L 158 118 L 156 118 L 155 119 L 153 119 L 152 120 L 150 120 L 147 122 L 145 122 L 144 123 L 143 123 L 142 124 L 141 124 L 140 125 L 139 125 L 138 126 L 135 127 L 133 129 L 132 129 L 130 131 L 129 131 L 127 133 L 126 133 L 120 139 L 119 139 L 117 141 L 117 142 L 111 148 L 111 149 L 108 152 L 107 155 L 105 157 L 105 158 L 104 159 L 104 160 L 101 165 L 101 167 L 99 170 L 99 172 L 98 173 L 98 175 L 97 176 L 97 180 L 96 181 L 96 186 L 95 187 L 95 214 L 96 215 L 96 221 L 97 222 L 97 227 L 98 228 L 98 231 L 99 232 L 99 235 L 100 236 L 100 239 L 101 240 L 101 243 L 102 244 L 102 247 L 103 248 L 103 250 L 104 251 L 104 253 L 105 254 L 105 257 L 106 258 L 106 261 L 107 262 L 107 265 L 108 266 L 108 269 L 109 270 L 109 274 L 110 275 L 110 280 L 111 281 L 111 291 L 110 292 L 110 296 L 109 297 L 109 298 L 108 299 L 107 302 L 101 308 L 100 308 L 97 310 L 95 310 L 94 311 L 84 311 L 83 310 L 81 310 L 79 308 L 78 308 L 75 305 L 75 304 L 73 302 L 73 301 L 71 298 L 71 294 L 70 293 L 70 289 L 71 288 L 71 285 L 72 284 L 73 281 L 80 274 L 80 273 L 81 272 L 81 269 L 80 268 L 80 267 L 77 265 L 75 265 L 74 266 L 73 266 L 71 268 L 70 268 L 67 271 L 67 272 L 63 277 L 63 278 L 62 279 L 62 281 L 61 282 L 61 286 L 60 287 L 60 297 L 61 298 L 61 301 L 62 302 L 62 304 L 63 305 L 64 308 L 66 310 L 66 311 L 71 316 L 72 316 L 74 318 L 75 318 L 78 320 L 80 320 L 81 321 L 84 321 L 85 322 L 94 322 L 95 321 L 98 321 L 99 320 L 101 320 L 102 319 L 105 318 L 107 316 L 108 316 L 115 309 L 116 306 L 118 304 L 118 302 L 119 301 L 119 299 L 120 298 L 120 295 L 121 294 L 121 278 L 120 277 L 120 272 L 119 271 L 119 267 L 118 266 L 118 263 L 117 262 L 117 259 L 116 258 L 116 256 L 115 255 L 115 252 L 114 251 L 114 248 L 113 247 L 113 244 L 112 243 L 112 241 L 111 240 L 111 237 L 110 236 L 110 233 L 109 232 L 109 229 L 108 228 L 108 227 L 109 226 L 111 226 L 112 227 L 114 227 L 115 228 L 117 228 L 118 229 L 120 229 L 121 230 L 124 230 L 125 231 L 128 231 L 129 232 L 133 232 L 134 233 L 138 233 L 139 234 L 146 234 L 147 235 L 157 235 L 158 236 L 174 236 L 175 235 L 186 235 L 187 234 L 192 234 L 193 233 L 198 233 L 199 232 L 202 232 L 203 231 L 206 231 L 207 230 L 209 230 L 210 229 L 212 229 L 213 228 L 218 228 L 220 230 L 221 230 L 222 231 L 223 231 L 224 232 L 225 232 L 226 233 L 227 233 L 228 234 L 229 234 L 230 235 L 231 235 L 232 236 L 233 236 L 234 237 L 235 237 L 236 238 L 237 238 L 238 239 L 239 239 L 240 240 L 243 241 L 245 243 L 246 243 L 247 244 L 248 244 L 253 247 L 258 247 L 261 244 L 261 240 L 260 239 L 260 237 L 259 236 L 259 234 L 258 233 L 258 230 L 257 229 L 257 227 L 256 226 L 256 224 L 255 223 L 255 220 L 254 219 L 254 217 L 253 216 L 253 214 L 252 213 L 252 211 L 251 210 L 251 206 L 255 202 L 255 201 L 258 198 L 258 197 L 260 195 L 260 194 L 261 193 L 261 192 L 262 191 L 262 190 L 265 185 L 265 183 L 266 182 L 266 178 L 267 177 L 267 162 L 266 161 L 266 158 L 264 155 L 264 153 L 263 152 L 263 151 L 262 150 L 261 147 L 258 144 L 258 143 L 254 139 L 254 131 L 255 130 L 255 125 L 256 124 L 256 118 L 257 117 L 257 111 L 258 110 L 258 105 L 259 104 L 259 100 L 260 99 L 260 93 L 261 92 L 261 87 L 262 86 L 262 80 L 263 79 L 263 74 L 264 73 L 264 68 L 265 67 L 265 59 Z M 111 168 L 112 167 L 112 166 L 114 164 L 114 163 L 115 162 L 116 159 L 119 156 L 119 155 L 132 142 L 133 142 L 136 139 L 137 139 L 139 137 L 142 136 L 144 134 L 145 134 L 150 131 L 152 131 L 153 130 L 155 130 L 156 129 L 158 129 L 159 128 L 161 128 L 162 127 L 165 127 L 166 126 L 171 126 L 172 125 L 199 125 L 200 126 L 205 126 L 206 127 L 210 127 L 211 128 L 214 128 L 215 129 L 217 129 L 218 130 L 220 130 L 221 131 L 223 131 L 226 133 L 228 133 L 229 134 L 230 134 L 232 136 L 233 136 L 234 137 L 237 138 L 240 141 L 241 141 L 250 150 L 250 151 L 252 153 L 252 154 L 255 159 L 255 161 L 256 162 L 256 165 L 257 166 L 257 173 L 256 174 L 256 178 L 255 179 L 255 181 L 254 182 L 254 184 L 253 185 L 253 186 L 251 188 L 251 189 L 249 191 L 249 192 L 245 196 L 245 197 L 240 202 L 240 203 L 239 204 L 239 206 L 240 207 L 240 209 L 241 210 L 241 213 L 242 214 L 242 216 L 243 217 L 243 219 L 244 220 L 244 222 L 245 223 L 245 226 L 246 227 L 246 230 L 245 231 L 244 230 L 241 229 L 239 227 L 238 227 L 237 226 L 236 226 L 235 225 L 234 225 L 233 224 L 232 224 L 231 223 L 230 223 L 229 222 L 228 222 L 227 221 L 226 221 L 225 220 L 224 220 L 219 217 L 213 217 L 212 218 L 210 218 L 209 219 L 207 219 L 206 220 L 204 220 L 203 221 L 200 221 L 199 222 L 196 222 L 195 223 L 190 223 L 189 224 L 182 224 L 181 225 L 151 225 L 150 224 L 142 224 L 141 223 L 136 223 L 135 222 L 132 222 L 131 221 L 128 221 L 127 220 L 125 220 L 124 219 L 121 219 L 120 218 L 118 218 L 117 217 L 115 217 L 110 214 L 108 214 L 106 212 L 106 210 L 105 209 L 105 192 L 106 191 L 106 184 L 107 183 L 107 180 L 108 179 L 108 176 L 109 175 L 109 173 L 111 170 Z" fill="#000" fill-rule="evenodd"/>
  <path d="M 139 165 L 135 169 L 135 170 L 134 171 L 134 177 L 135 178 L 135 179 L 138 182 L 139 182 L 140 183 L 147 183 L 148 182 L 149 182 L 152 179 L 152 178 L 153 177 L 153 171 L 152 170 L 152 169 L 148 165 L 146 165 L 145 164 L 142 164 L 141 165 Z" fill="#000"/>
  <path d="M 178 164 L 177 165 L 174 166 L 172 168 L 172 169 L 171 170 L 171 178 L 173 180 L 173 181 L 176 183 L 184 183 L 185 182 L 186 182 L 188 180 L 188 179 L 189 178 L 189 176 L 190 175 L 190 173 L 189 172 L 189 170 L 188 169 L 188 168 L 186 166 L 185 166 L 182 164 Z" fill="#000"/>
  <path d="M 212 165 L 208 169 L 208 170 L 207 171 L 207 176 L 208 177 L 208 179 L 211 182 L 212 182 L 213 183 L 220 183 L 221 182 L 222 182 L 225 179 L 225 178 L 226 177 L 226 171 L 225 170 L 224 167 L 223 167 L 221 165 L 219 165 L 218 164 L 215 164 L 214 165 Z" fill="#000"/>
</svg>
